<svg class="animated" id="freepik_stories-weights" xmlns="http://www.w3.org/2000/svg" viewBox="0 0 500 500" version="1.1" xmlns:xlink="http://www.w3.org/1999/xlink" xmlns:svgjs="http://svgjs.com/svgjs"><style>svg#freepik_stories-weights:not(.animated) .animable {opacity: 0;}svg#freepik_stories-weights.animated #freepik--background-complete--inject-2 {animation: 1s 1 forwards cubic-bezier(.36,-0.01,.5,1.38) lightSpeedLeft;animation-delay: 0s;}svg#freepik_stories-weights.animated #freepik--Table--inject-2 {animation: 1s 1 forwards cubic-bezier(.36,-0.01,.5,1.38) zoomIn;animation-delay: 0s;}svg#freepik_stories-weights.animated #freepik--Dumbbell--inject-2 {animation: 1s 1 forwards cubic-bezier(.36,-0.01,.5,1.38) fadeIn;animation-delay: 0s;}svg#freepik_stories-weights.animated #freepik--Character--inject-2 {animation: 1s 1 forwards ease-out slideUp,1.5s Infinite  linear floating;animation-delay: 0s,1s;}            @keyframes lightSpeedLeft {              from {                transform: translate3d(-50%, 0, 0) skewX(20deg);                opacity: 0;              }              60% {                transform: skewX(-10deg);                opacity: 1;              }              80% {                transform: skewX(2deg);              }              to {                opacity: 1;                transform: translate3d(0, 0, 0);              }            }                    @keyframes zoomIn {                0% {                    opacity: 0;                    transform: scale(0.5);                }                100% {                    opacity: 1;                    transform: scale(1);                }            }                    @keyframes fadeIn {                0% {                    opacity: 0;                }                100% {                    opacity: 1;                }            }                    @keyframes slideUp {                0% {                    opacity: 0;                    transform: translateY(30px);                }                100% {                    opacity: 1;                    transform: inherit;                }            }                    @keyframes floating {                0% {                    opacity: 1;                    transform: translateY(0px);                }                50% {                    transform: translateY(-10px);                }                100% {                    opacity: 1;                    transform: translateY(0px);                }            }        </style><g id="freepik--background-complete--inject-2" class="animable" style="transform-origin: 240.336px 255.44px;"><rect x="89.86" y="192.08" width="63.87" height="16.9" style="fill: rgb(235, 235, 235); transform-origin: 121.795px 200.53px;" id="el7oljxdzgrrw" class="animable"></rect><path d="M126.73,226.78a1.15,1.15,0,0,1,0-.31c0-.22,0-.51,0-.86,0-.8,0-1.91,0-3.33,0-2.92-.07-7.11-.11-12.4l.2.2-63.87.13c.14-.15-.33.32.32-.33h0v8.58c0,2.82,0,5.59,0,8.31l-.32-.32,45.52.15,13.44.09,3.63,0,1,0,.34,0-.3,0-.91,0-3.57,0-13.36.09-45.74.15h-.31v-.32q0-4.08,0-8.31v-8.58h0c.65-.65.18-.18.33-.32l63.87.12h.2v.2c0,5.34-.08,9.57-.11,12.52,0,1.4,0,2.49,0,3.28,0,.34,0,.61,0,.83S126.73,226.79,126.73,226.78Z" style="fill: rgb(224, 224, 224); transform-origin: 94.89px 218.148px;" id="elgoyrp5q2zfq" class="animable"></path><rect x="333.55" y="37.65" width="63.87" height="16.9" style="fill: rgb(235, 235, 235); transform-origin: 365.485px 46.1px;" id="elansl7mtoqvn" class="animable"></rect><path d="M370.62,71.8a1.85,1.85,0,0,1,0-.3c0-.23,0-.51,0-.87,0-.8,0-1.9-.05-3.33,0-2.91-.06-7.11-.11-12.39l.2.19-63.87.13.32-.32h0V71.8l-.32-.32,45.52.15,13.43.09,3.63,0,.95,0,.34,0a.83.83,0,0,1-.29,0l-.92,0-3.56,0L352.49,72l-45.74.14h-.32V63.49c0-1.41,0-2.83,0-4.26V54.92h0c.65-.65.19-.18.33-.33l63.87.13h.2v.2c-.05,5.33-.08,9.57-.11,12.51,0,1.4,0,2.5,0,3.28,0,.34,0,.62,0,.83A1.15,1.15,0,0,1,370.62,71.8Z" style="fill: rgb(224, 224, 224); transform-origin: 338.63px 63.3521px;" id="elanjc4bcclbv" class="animable"></path><rect x="334.81" y="115.99" width="105.93" height="147.49" style="fill: rgb(255, 255, 255); transform-origin: 387.775px 189.735px;" id="el7mq30jjser3" class="animable"></rect><path d="M440.74,263.48s0-.25,0-.71,0-1.17,0-2.08c0-1.83,0-4.53,0-8,0-7,0-17.3-.06-30.29,0-26-.07-62.8-.11-106.37l.22.23-105.92,0h0l.25-.25c0,55.19,0,106.26-.05,147.49l-.2-.21,77,.11,21.36.05,5.62,0,1.93,0-1.89,0-5.57,0-21.32.05-77.15.11h-.2v-.2c0-41.23,0-92.3-.05-147.49v-.25h.26l105.92,0H441V116c-.05,43.63-.09,80.53-.11,106.52,0,13-.05,23.22-.06,30.23,0,3.5,0,6.18,0,8,0,.9,0,1.58,0,2.05S440.74,263.48,440.74,263.48Z" style="fill: rgb(224, 224, 224); transform-origin: 387.8px 189.64px;" id="elg9d7ux3prg9" class="animable"></path><rect x="345.48" y="193.96" width="82.54" height="5.32" style="fill: rgb(245, 245, 245); transform-origin: 386.75px 196.62px;" id="el14w7mytd36u" class="animable"></rect><rect x="364.46" y="191.95" width="46.5" height="9.61" style="fill: rgb(245, 245, 245); transform-origin: 387.71px 196.755px;" id="el2rizyp6h17j" class="animable"></rect><path d="M380.4,151.56c4.74,0,6.92,2.87,6.92,7.57v15.36c0,4.66-2.18,7.53-6.92,7.53h-7.14V151.56Zm0,27.37c2.44,0,3.62-1.52,3.62-4.31V159c0-2.79-1.18-4.31-3.66-4.31h-3.65v24.28Z" style="fill: rgb(224, 224, 224); transform-origin: 380.29px 166.79px;" id="elsr4j1hkxtc" class="animable"></path><path d="M390.23,158.91c0-4.65,2.31-7.65,7-7.65s7,3,7,7.65v15.75c0,4.62-2.31,7.66-7,7.66s-7-3-7-7.66Zm3.35,15.93c0,2.78,1.17,4.39,3.61,4.39s3.61-1.61,3.61-4.39v-16.1c0-2.74-1.13-4.39-3.61-4.39s-3.61,1.65-3.61,4.39Z" style="fill: rgb(224, 224, 224); transform-origin: 397.23px 166.79px;" id="elxthe2em1fa" class="animable"></path><path d="M382.55,209.59V242.8h-3.7V209.59Z" style="fill: rgb(224, 224, 224); transform-origin: 380.7px 226.195px;" id="elhv2b8jx8fe" class="animable"></path><path d="M391.18,242.8V213h-6.12v-3.37H401V213h-6.12V242.8Z" style="fill: rgb(224, 224, 224); transform-origin: 393.03px 226.215px;" id="el1k63eocxwjy" class="animable"></path><polygon points="348.24 154.08 352.26 168.6 355.79 164.58 361.68 174.6 357.78 157.37 354.13 161.51 348.24 154.08" style="fill: rgb(245, 245, 245); transform-origin: 354.96px 164.34px;" id="elli4yd3u4sqn" class="animable"></polygon><polygon points="427.11 152.62 423.09 167.13 419.56 163.12 413.67 173.14 417.57 155.9 421.21 160.04 427.11 152.62" style="fill: rgb(245, 245, 245); transform-origin: 420.39px 162.88px;" id="elyll9smmoeut" class="animable"></polygon><polygon points="387.21 123.16 381.98 140.47 388.14 138.67 387.7 152.62 394.79 132.62 388.43 134.48 387.21 123.16" style="fill: rgb(224, 224, 224); transform-origin: 388.385px 137.89px;" id="eltwkvt9ygu9" class="animable"></polygon><polygon points="410.42 178.33 409.46 178.33 409.46 139.25 367.31 139.25 367.31 178.33 366.35 178.33 366.35 138.3 410.42 138.3 410.42 178.33" style="fill: rgb(224, 224, 224); transform-origin: 388.385px 158.315px;" id="el26v13yo400o" class="animable"></polygon><polygon points="410.42 248.9 366.35 248.9 366.35 208.87 367.31 208.87 367.31 247.95 409.46 247.95 409.46 208.87 410.42 208.87 410.42 248.9" style="fill: rgb(224, 224, 224); transform-origin: 388.385px 228.885px;" id="elfp9isybklov" class="animable"></polygon><rect x="354.96" y="178.33" width="9.5" height="36.52" rx="3.17" style="fill: rgb(224, 224, 224); transform-origin: 359.71px 196.59px;" id="el6372nxgltr7" class="animable"></rect><rect x="410.96" y="178.33" width="9.5" height="36.52" rx="3.17" style="fill: rgb(224, 224, 224); transform-origin: 415.71px 196.59px;" id="elphu40l7wyq" class="animable"></rect><rect x="351.05" y="191.04" width="3.91" height="10.17" style="fill: rgb(235, 235, 235); transform-origin: 353.005px 196.125px;" id="elmwfjcc0ilr" class="animable"></rect><rect x="420.39" y="191.04" width="3.91" height="10.17" style="fill: rgb(235, 235, 235); transform-origin: 422.345px 196.125px;" id="elenv9i06yl4" class="animable"></rect><g id="el33z0ugoj7pd"><rect x="326.19" y="118.07" width="29.63" height="5.32" style="fill: rgb(224, 224, 224); transform-origin: 341.005px 120.73px; transform: rotate(-37.52deg);" class="animable" id="el5rsr6n63qve"></rect></g><g id="elbrw6uqs1zog"><rect x="419.02" y="256.9" width="29.63" height="5.32" style="fill: rgb(224, 224, 224); transform-origin: 433.835px 259.56px; transform: rotate(-37.51deg);" class="animable" id="el37yrcb4tc5s"></rect></g><path d="M112.89,83.44a2.08,2.08,0,0,1,0-.31c0-.23,0-.51,0-.87,0-.79,0-1.9,0-3.32,0-2.92-.06-7.11-.11-12.4l.2.2L49,66.86l.32-.32h0V83.44L49,83.12l45.52.14,13.43.09,3.63.05,1,0a1.37,1.37,0,0,1,.34,0l-.3,0-.91,0-3.56,0-13.36.09L49,83.75H48.7v-.32q0-4.08,0-8.31V66.55h0c.65-.65.19-.18.33-.33l63.87.13h.2v.2c0,5.34-.09,9.57-.11,12.52,0,1.4,0,2.49,0,3.28,0,.34,0,.61,0,.83A1.39,1.39,0,0,1,112.89,83.44Z" style="fill: rgb(224, 224, 224); transform-origin: 80.9px 74.9721px;" id="elfkn1c4pjz5a" class="animable"></path><path d="M121.55,66.54a1.27,1.27,0,0,1,0-.32q0-.36,0-.9,0-1.25-.06-3.39c0-3-.07-7.14-.12-12.29l.23.24L83.18,50c-.3.29.39-.4.32-.33h0v8.68c0,2.82,0,5.56,0,8.19l-.31-.31,27.46.15,8,.08,2.16,0a6.24,6.24,0,0,1,.77,0,6.94,6.94,0,0,1-.7,0l-2.09,0-7.92.08-27.67.15h-.31v-.31c0-2.63,0-5.37,0-8.19V49.67h0l.33-.32,38.37.09h.24v.23c0,5.21-.09,9.44-.12,12.44q0,2.1-.06,3.33A9.08,9.08,0,0,1,121.55,66.54Z" style="fill: rgb(224, 224, 224); transform-origin: 102.36px 58.02px;" id="elewt751f1as" class="animable"></path><path d="M95.81,369.62s0-.11,0-.31,0-.51,0-.87c0-.79,0-1.9,0-3.32,0-2.92-.07-7.11-.11-12.4l.19.2L32,353.05c.14-.15-.33.32.32-.33h0v8.58q0,4.23,0,8.31l-.32-.32,45.52.14,13.44.09,3.63.05,1,0a1.25,1.25,0,0,1,.33,0l-.29,0-.91,0-3.57,0-13.36.09-45.74.15h-.32V352.73h0c.65-.65.18-.18.33-.32l63.86.12H96v.2c0,5.34-.08,9.57-.11,12.52,0,1.4,0,2.49,0,3.28,0,.34,0,.61,0,.83A.8.8,0,0,1,95.81,369.62Z" style="fill: rgb(224, 224, 224); transform-origin: 63.865px 361.093px;" id="elbswtknkzmyb" class="animable"></path><path d="M104.48,352.72a1.57,1.57,0,0,1,0-.32c0-.24,0-.54,0-.9,0-.83,0-2-.06-3.38,0-3-.08-7.15-.13-12.3l.23.24-38.37.09.32-.33h0v8.69c0,2.82,0,5.56,0,8.19l-.31-.31,27.45.15,8,.08,2.15,0,.78,0a4.42,4.42,0,0,1-.7,0l-2.09,0-7.93.08L66.1,353h-.31v-.31c0-2.63,0-5.37,0-8.19,0-1.42,0-2.85,0-4.3v-4.39h0l.33-.32,38.37.09h.24v.23c0,5.21-.1,9.44-.13,12.44q0,2.1-.06,3.33C104.51,352.35,104.49,352.74,104.48,352.72Z" style="fill: rgb(224, 224, 224); transform-origin: 85.26px 344.245px;" id="elw9n8zdyycp" class="animable"></path><path d="M416.15,369.27a1.15,1.15,0,0,1,0-.31c0-.23,0-.51,0-.87,0-.79,0-1.9-.05-3.32,0-2.92-.06-7.11-.11-12.4l.2.2-63.87.13c.14-.15-.33.32.32-.33h0V361q0,4.23,0,8.31l-.31-.32,45.51.14,13.44.09,3.63.05.95,0a1.37,1.37,0,0,1,.34,0l-.3,0-.91,0-3.56,0-13.36.09-45.74.15H352v-.32c0-2.72,0-5.49,0-8.31v-8.58h0l.33-.33,63.87.13h.2v.2c-.05,5.34-.09,9.57-.11,12.52,0,1.4,0,2.49-.05,3.28,0,.34,0,.61,0,.83S416.15,369.27,416.15,369.27Z" style="fill: rgb(224, 224, 224); transform-origin: 384.2px 360.74px;" id="elkzpjgx4p6sn" class="animable"></path><path d="M424.81,352.37a1.57,1.57,0,0,1,0-.32c0-.24,0-.54,0-.9,0-.83,0-2-.06-3.38,0-3-.07-7.15-.13-12.3l.24.24-38.38.09.33-.33h0v4.38c0,1.45,0,2.88,0,4.3,0,2.82,0,5.56,0,8.19l-.31-.31,27.45.15,8,.08,2.16,0a6.24,6.24,0,0,1,.77,0,4.42,4.42,0,0,1-.7,0l-2.09,0-7.93.08-27.66.15h-.31v-.31c0-2.63,0-5.37,0-8.19V335.5h0c-.08.07.61-.61.32-.32l38.38.09H425v.23c-.05,5.21-.09,9.44-.12,12.44q0,2.1-.06,3.33C424.84,352,424.82,352.39,424.81,352.37Z" style="fill: rgb(224, 224, 224); transform-origin: 405.592px 343.799px;" id="el5k67nzrcef7" class="animable"></path><g id="eltf3uszbcdu"><rect x="399.77" y="422.37" width="52.52" height="14.59" style="fill: rgb(235, 235, 235); transform-origin: 426.03px 429.665px; transform: rotate(90deg);" class="animable" id="elwi1ugsuteli"></rect></g><rect x="403.4" y="389.02" width="45.27" height="20.84" rx="2.25" style="fill: rgb(235, 235, 235); transform-origin: 426.035px 399.44px;" id="el87hdvj3ws9q" class="animable"></rect><path d="M403.4,407.61a2.58,2.58,0,0,0,.41,1.2,2.16,2.16,0,0,0,1.22.88,10.23,10.23,0,0,0,2.13.07l13.75-.08,20.4-.06h5.14a1.82,1.82,0,0,0,.65-.12,2.05,2.05,0,0,0,1.32-2.17c0-1,0-2.06,0-3.11V391.28a2,2,0,0,0-1.78-2c-1,0-2.17,0-3.23,0H437l-12,0-10.91,0-4.94,0h-3.45a2.17,2.17,0,0,0-1,.23,2.09,2.09,0,0,0-1.1,1.53c-.06.63,0,1.34,0,2,0,1.3,0,2.54,0,3.69,0,2.3,0,4.28,0,5.92s0,2.85-.05,3.74c0,.4,0,.72,0,1a.17.17,0,1,1-.06,0c0-.25,0-.57,0-1,0-.89,0-2.15-.05-3.74s0-3.62-.05-5.92c0-1.15,0-2.39,0-3.69,0-.67,0-1.31,0-2a2.46,2.46,0,0,1,1.28-1.8,2.41,2.41,0,0,1,1.15-.27h8.39l10.91,0H443.4c1.09,0,2.13,0,3.28,0a2.53,2.53,0,0,1,2.25,2.5c0,4.43,0,8.76,0,12.93v3.11a2.56,2.56,0,0,1-1.65,2.64,2.53,2.53,0,0,1-.82.15h-5.14l-20.4-.05L407.16,410,406,410a3,3,0,0,1-1-.11,2.3,2.3,0,0,1-1.27-1,2.13,2.13,0,0,1-.32-.93A1.37,1.37,0,0,1,403.4,407.61Z" style="fill: rgb(224, 224, 224); transform-origin: 426.146px 399.635px;" id="elsti56h9jmn7" class="animable"></path><rect x="403.4" y="451.96" width="45.27" height="20.84" rx="2.25" style="fill: rgb(235, 235, 235); transform-origin: 426.035px 462.38px;" id="elpdsy6nzrwpc" class="animable"></rect><path d="M403.4,470.55a2.54,2.54,0,0,0,.41,1.2,2.22,2.22,0,0,0,1.22.89,11,11,0,0,0,2.13.06l13.75-.08,20.4-.06h5.14a1.82,1.82,0,0,0,.65-.12,2.05,2.05,0,0,0,1.32-2.17c0-1,0-2.06,0-3.11V454.22a2,2,0,0,0-1.78-2c-1,0-2.17,0-3.23,0H437l-12,0-10.91,0h-8.39a2.17,2.17,0,0,0-1,.23,2.09,2.09,0,0,0-1.1,1.53c-.06.63,0,1.35,0,2,0,1.3,0,2.54,0,3.69,0,2.3,0,4.28,0,5.92s0,2.85-.05,3.74c0,.4,0,.72,0,1a.17.17,0,1,1-.06,0c0-.25,0-.57,0-1,0-.89,0-2.15-.05-3.74s0-3.62-.05-5.92c0-1.15,0-2.39,0-3.69,0-.67,0-1.31,0-2a2.46,2.46,0,0,1,1.28-1.81,2.41,2.41,0,0,1,1.15-.27h8.39l10.91,0H443.4c1.09,0,2.13,0,3.28,0a2.53,2.53,0,0,1,2.25,2.5c0,4.43,0,8.76,0,12.93v3.11a2.56,2.56,0,0,1-1.65,2.64,2.53,2.53,0,0,1-.82.15h-5.14l-20.4-.05-13.75-.08-1.15,0a3,3,0,0,1-1-.11,2.3,2.3,0,0,1-1.27-1,2.13,2.13,0,0,1-.32-.93A1.37,1.37,0,0,1,403.4,470.55Z" style="fill: rgb(224, 224, 224); transform-origin: 426.146px 462.565px;" id="el25460k2d1p9" class="animable"></path><path d="M435.92,472.51a96.82,96.82,0,0,1-.26-10.13,96.54,96.54,0,0,1,.26-10.12,99.94,99.94,0,0,1,.26,10.12A100.22,100.22,0,0,1,435.92,472.51Z" style="fill: rgb(224, 224, 224); transform-origin: 435.918px 462.385px;" id="elmveelup6sk7" class="animable"></path><path d="M417,472.51a96.82,96.82,0,0,1-.26-10.13,96.54,96.54,0,0,1,.26-10.12,99.94,99.94,0,0,1,.26,10.12A100.22,100.22,0,0,1,417,472.51Z" style="fill: rgb(224, 224, 224); transform-origin: 416.998px 462.385px;" id="elxffv5j1885" class="animable"></path><path d="M435.92,409.63a96.54,96.54,0,0,1-.26-10.12,96.54,96.54,0,0,1,.26-10.12,99.94,99.94,0,0,1,.26,10.12A99.94,99.94,0,0,1,435.92,409.63Z" style="fill: rgb(224, 224, 224); transform-origin: 435.918px 399.51px;" id="elu0wu4cfv4bk" class="animable"></path><path d="M417,409.63a96.54,96.54,0,0,1-.26-10.12,96.54,96.54,0,0,1,.26-10.12,99.94,99.94,0,0,1,.26,10.12A99.94,99.94,0,0,1,417,409.63Z" style="fill: rgb(224, 224, 224); transform-origin: 416.998px 399.51px;" id="elmtrfpowfis" class="animable"></path></g><g id="freepik--Table--inject-2" class="animable" style="transform-origin: 250px 472.8px;"><path d="M468.38,472.8c0,.15-97.78.26-218.37.26S31.62,473,31.62,472.8s97.76-.26,218.39-.26S468.38,472.66,468.38,472.8Z" style="fill: rgb(38, 50, 56); transform-origin: 250px 472.8px;" id="elhtl6190qql" class="animable"></path></g><g id="freepik--Dumbbell--inject-2" class="animable" style="transform-origin: 369.75px 449.934px;"><rect x="342.04" y="441.89" width="52.52" height="15.33" style="fill: rgb(69, 90, 100); transform-origin: 368.3px 449.555px;" id="el9qezqf4yhcp" class="animable"></rect><rect x="327.65" y="427.53" width="20.84" height="45.27" rx="2.25" style="fill: rgb(69, 90, 100); transform-origin: 338.07px 450.165px;" id="eldn3apoesp8" class="animable"></rect><path d="M346.24,472.8a2.54,2.54,0,0,0,1.2-.41,2.16,2.16,0,0,0,.88-1.22,10.13,10.13,0,0,0,.07-2.12c0-3.28,0-8-.08-13.76s0-12.72-.06-20.39v-5.14a1.84,1.84,0,0,0-.12-.66,2,2,0,0,0-2.17-1.31h-16a2,2,0,0,0-2,1.79c0,1,0,2.16,0,3.23v6.37c0,4.18,0,8.21,0,12.05s0,7.48,0,10.9c0,1.71,0,3.35,0,4.94,0,.79,0,1.57,0,2.33v1.12a2.17,2.17,0,0,0,.23,1,2.06,2.06,0,0,0,1.53,1.1c.63.06,1.35,0,2,0l3.69,0,5.92,0,3.74.05,1,0,.33,0-.33,0-1,0-3.74.05-5.92,0-3.69,0c-.67,0-1.31,0-2,0a2.46,2.46,0,0,1-1.81-1.28,2.41,2.41,0,0,1-.27-1.15c0-.37,0-.74,0-1.12,0-.76,0-1.54,0-2.33,0-1.59,0-3.23,0-4.94,0-3.42,0-7.06,0-10.9s0-7.87,0-12.05v-6.37c0-1.09,0-2.14,0-3.29a2.54,2.54,0,0,1,2.5-2.25h16a2.58,2.58,0,0,1,2.64,1.65,2.53,2.53,0,0,1,.15.82V432c0,1,0,2,0,2.92,0,7.67,0,14.58-.05,20.39s-.06,10.48-.08,13.76c0,.4,0,.79,0,1.15a2.86,2.86,0,0,1-.11,1,2.31,2.31,0,0,1-1,1.26,2.13,2.13,0,0,1-.93.32A.92.92,0,0,1,346.24,472.8Z" style="fill: rgb(38, 50, 56); transform-origin: 338.285px 449.934px;" id="elrkrhbpwucy" class="animable"></path><rect x="390.59" y="427.53" width="20.84" height="45.27" rx="2.25" style="fill: rgb(69, 90, 100); transform-origin: 401.01px 450.165px;" id="el3wytlrytbbx" class="animable"></rect><path d="M409.18,472.8a2.54,2.54,0,0,0,1.2-.41,2.22,2.22,0,0,0,.89-1.22,10.94,10.94,0,0,0,.06-2.12c0-3.28,0-8-.08-13.76s0-12.72-.06-20.39v-5.14a2.09,2.09,0,0,0-.13-.66,2,2,0,0,0-2.17-1.31h-16a2,2,0,0,0-2,1.79c0,1,0,2.16,0,3.23v6.37c0,4.18,0,8.21,0,12.05s0,7.48,0,10.9c0,1.71,0,3.35,0,4.94,0,.79,0,1.57,0,2.33v1.12a2.17,2.17,0,0,0,.23,1,2.06,2.06,0,0,0,1.53,1.1c.63.06,1.35,0,2,0l3.69,0,5.92,0,3.74.05,1,0,.33,0-.33,0-1,0-3.74.05-5.92,0-3.69,0c-.67,0-1.3,0-2,0a2.46,2.46,0,0,1-1.81-1.28,2.41,2.41,0,0,1-.27-1.15c0-.37,0-.74,0-1.12,0-.76,0-1.54,0-2.33,0-1.59,0-3.23,0-4.94,0-3.42,0-7.06,0-10.9s0-7.87,0-12.05v-6.37c0-1.09,0-2.14,0-3.29a2.54,2.54,0,0,1,2.5-2.25h16a2.58,2.58,0,0,1,2.64,1.65,2.53,2.53,0,0,1,.15.82V432c0,1,0,2,0,2.92,0,7.67,0,14.58-.05,20.39s-.06,10.48-.08,13.76c0,.4,0,.79,0,1.15a2.86,2.86,0,0,1-.11,1,2.27,2.27,0,0,1-1,1.26,2.13,2.13,0,0,1-.93.32A.92.92,0,0,1,409.18,472.8Z" style="fill: rgb(38, 50, 56); transform-origin: 401.215px 449.933px;" id="els4fwxmtcds8" class="animable"></path><path d="M411.14,440.28a95,95,0,0,1-10.13.27,94.77,94.77,0,0,1-10.12-.27A99.94,99.94,0,0,1,401,440,100.22,100.22,0,0,1,411.14,440.28Z" style="fill: rgb(38, 50, 56); transform-origin: 401.015px 440.279px;" id="elgq2dsgpwccs" class="animable"></path><path d="M411.14,459.24a100.22,100.22,0,0,1-10.13.26,99.94,99.94,0,0,1-10.12-.26A96.54,96.54,0,0,1,401,459,96.82,96.82,0,0,1,411.14,459.24Z" style="fill: rgb(38, 50, 56); transform-origin: 401.015px 459.246px;" id="elh1w1wb444k" class="animable"></path><path d="M348.26,440.28a94.77,94.77,0,0,1-10.12.27,94.77,94.77,0,0,1-10.12-.27,99.94,99.94,0,0,1,10.12-.26A99.94,99.94,0,0,1,348.26,440.28Z" style="fill: rgb(38, 50, 56); transform-origin: 338.14px 440.286px;" id="elfrac4ardcf" class="animable"></path><path d="M348.26,459.24a99.94,99.94,0,0,1-10.12.26,99.94,99.94,0,0,1-10.12-.26,96.54,96.54,0,0,1,10.12-.26A96.54,96.54,0,0,1,348.26,459.24Z" style="fill: rgb(38, 50, 56); transform-origin: 338.14px 459.238px;" id="elrfe2nleh20g" class="animable"></path></g><g id="freepik--Character--inject-2" class="animable" style="transform-origin: 256.985px 258.703px;"><path d="M272,198.3s25.49,5.82,28.14,24.51c2.88,20.3-2.86,61.16-2.14,68s.81,12.35.81,12.35l51.76,27.7-10.54,14S294.1,343,281.94,334s-14.66-20-14.3-30,0-64.73,0-64.73Z" style="fill: rgb(174, 116, 97); transform-origin: 309.089px 271.58px;" id="elpsg2qn70c7r" class="animable"></path><path d="M289.66,235.1c.12.09-1.83,2.91-3.94,6.56s-3.57,6.76-3.71,6.7a9.16,9.16,0,0,1,.79-2.12,53.63,53.63,0,0,1,2.47-4.84c1.07-1.83,2.13-3.44,3-4.56A8.77,8.77,0,0,1,289.66,235.1Z" style="fill: rgb(111, 68, 57); transform-origin: 285.838px 241.73px;" id="elpan6gx0q8x" class="animable"></path><path d="M426,327.67c0,11.67-6.88,21.12-15.37,21.12-3.49,0-12.65,0-12.65,0-3.69-3.85-2.73-14.21-2.73-21.08,0-6.35-1.95-17.12,1.29-21,0,0,10.22-.13,14.09-.13C419.15,306.55,426,316,426,327.67Z" style="fill: #C5B6B4; transform-origin: 410.334px 327.685px;" id="el68zxbfy7euo" class="animable"></path><g id="el87nj3f24d98"><g style="opacity: 0.3; transform-origin: 410.334px 327.685px;" class="animable" id="elgg9c0xvqcho"><path d="M426,327.67c0,11.67-6.88,21.12-15.37,21.12-3.49,0-12.65,0-12.65,0-3.69-3.85-2.73-14.21-2.73-21.08,0-6.35-1.95-17.12,1.29-21,0,0,10.22-.13,14.09-.13C419.15,306.55,426,316,426,327.67Z" id="eluqki9i7nz3" class="animable" style="transform-origin: 410.334px 327.685px;"></path></g></g><ellipse cx="398.01" cy="327.64" rx="11.85" ry="21.12" style="fill: #C5B6B4; transform-origin: 398.01px 327.64px;" id="el33urw71ijpx" class="animable"></ellipse><rect x="358.57" y="323.98" width="49.82" height="10.96" rx="3.4" style="fill: #C5B6B4; transform-origin: 383.48px 329.46px;" id="elgbau0o5wt4u" class="animable"></rect><path d="M401,317.87c-1.14-2-3.88-5.7-3.88-5.7-4.14-4.05-7.82-.52-7.82-.52-2-1.68-4.52-1.07-6.21.82-4.68-2.42-7.22,3.26-7.22,3.26-9-.52-7,8.25-7,8.25a11,11,0,0,1,2.56.42c.34,3.37-4.44,9.88-4.44,9.88L356.7,344.8l16.51-.26c2.88,1,5.53.77,7.66-2.21,4.54,3.34,6.68-.81,6.68-.81,4.28,2.88,6.79-1.47,6.79-1.47s4.3,2.07,5.64-6.15C400.47,330.9,402.12,319.87,401,317.87Z" style="fill: rgb(174, 116, 97); transform-origin: 379.041px 327.649px;" id="el4d2dooq2cge" class="animable"></path><path d="M378,333.65a30.27,30.27,0,0,1,1.06-2.93,59.06,59.06,0,0,0,2.13-7.19,6.63,6.63,0,0,0,.18-2,5.1,5.1,0,0,0-.55-1.81,6.9,6.9,0,0,0-2.28-2.31c-1.6-1-2.7-1.55-2.65-1.63a2.42,2.42,0,0,1,.79.28,18,18,0,0,1,2.06,1,6.93,6.93,0,0,1,2.5,2.39,5.36,5.36,0,0,1,.64,2,6.9,6.9,0,0,1-.19,2.21,42,42,0,0,1-2.29,7.21A13.09,13.09,0,0,1,378,333.65Z" style="fill: rgb(111, 68, 57); transform-origin: 378.894px 324.715px;" id="eln8w7vh4n7d" class="animable"></path><path d="M386.85,331.53c-.08,0,.34-1.18.77-3.09.21-1,.44-2.15.7-3.38a21.76,21.76,0,0,0,.67-4.12,6.4,6.4,0,0,0-1.28-3.79,15.75,15.75,0,0,0-2.32-2.49,16.67,16.67,0,0,1-2.31-2.19,21.79,21.79,0,0,1,2.55,1.92,14.1,14.1,0,0,1,2.47,2.48,6.66,6.66,0,0,1,1.41,4.08,20,20,0,0,1-.72,4.22c-.31,1.26-.56,2.41-.82,3.36a17.41,17.41,0,0,1-.74,2.23A2.78,2.78,0,0,1,386.85,331.53Z" style="fill: rgb(111, 68, 57); transform-origin: 386.295px 322px;" id="el7ow1ujodmur" class="animable"></path><path d="M394.36,329.65a19,19,0,0,1,.74-3.08l.94-3.3a8.82,8.82,0,0,0,.32-4,7.79,7.79,0,0,0-1.91-3.54,13.94,13.94,0,0,0-2.57-2.18,31,31,0,0,1-2.63-1.74,3,3,0,0,1,.79.32c.49.24,1.2.6,2,1.11a13.38,13.38,0,0,1,2.73,2.16,8.05,8.05,0,0,1,2.06,3.76,8.9,8.9,0,0,1-.37,4.26c-.37,1.25-.74,2.35-1,3.28A19.74,19.74,0,0,1,394.36,329.65Z" style="fill: rgb(111, 68, 57); transform-origin: 393.094px 320.73px;" id="eleo30402hml4" class="animable"></path><path d="M299,303.17a30.69,30.69,0,0,0-11.41,10.91,7.51,7.51,0,0,1,1-2.13,22.13,22.13,0,0,1,3.59-4.44,22.54,22.54,0,0,1,4.61-3.4A7.39,7.39,0,0,1,299,303.17Z" style="fill: rgb(111, 68, 57); transform-origin: 293.295px 308.625px;" id="el98aknymtg0m" class="animable"></path><path d="M368.09,329.24c0,11.67-6.88,21.12-15.38,21.12-3.49,0-12.64,0-12.64,0-3.7-3.85-2.73-14.21-2.73-21.08,0-6.35-1.95-17.12,1.28-21,0,0,10.23-.13,14.09-.13C361.21,308.12,368.09,317.58,368.09,329.24Z" style="fill: #C5B6B4; transform-origin: 352.423px 329.255px;" id="elq8ripdqwowm" class="animable"></path><g id="elngbwut7eejl"><g style="opacity: 0.3; transform-origin: 352.423px 329.255px;" class="animable" id="el492onwxuba3"><path d="M368.09,329.24c0,11.67-6.88,21.12-15.38,21.12-3.49,0-12.64,0-12.64,0-3.7-3.85-2.73-14.21-2.73-21.08,0-6.35-1.95-17.12,1.28-21,0,0,10.23-.13,14.09-.13C361.21,308.12,368.09,317.58,368.09,329.24Z" id="ele9rnvue844" class="animable" style="transform-origin: 352.423px 329.255px;"></path></g></g><ellipse cx="340.07" cy="329.21" rx="11.85" ry="21.12" style="fill: #C5B6B4; transform-origin: 340.07px 329.21px;" id="el9w16xf4liim" class="animable"></ellipse><path d="M350.19,329.21a.83.83,0,0,1,0-.24c0-.19,0-.42-.05-.71,0-.61-.1-1.52-.22-2.69-.09-.58-.19-1.22-.29-1.92s-.27-1.47-.52-2.26a22,22,0,0,0-2-5.24,15.17,15.17,0,0,0-1.86-2.65,8.5,8.5,0,0,0-2.74-2.13,5.78,5.78,0,0,0-3.59-.51,7.07,7.07,0,0,0-3.41,1.84,16.76,16.76,0,0,0-4.25,7.35,31.94,31.94,0,0,0,0,18.31,16.76,16.76,0,0,0,4.25,7.35,7.07,7.07,0,0,0,3.41,1.84,5.78,5.78,0,0,0,3.59-.51,8.5,8.5,0,0,0,2.74-2.13,15.17,15.17,0,0,0,1.86-2.65,22,22,0,0,0,2-5.24c.25-.79.35-1.56.52-2.25l.29-1.93c.12-1.17.2-2.07.22-2.69,0-.29,0-.52.05-.7a.75.75,0,0,1,0-.24,1.1,1.1,0,0,1,0,.24c0,.19,0,.42,0,.7,0,.62,0,1.53-.13,2.71-.06.59-.15,1.24-.25,1.95s-.24,1.48-.47,2.29a22.81,22.81,0,0,1-2,5.33,15,15,0,0,1-1.89,2.75,9,9,0,0,1-2.85,2.25,6.25,6.25,0,0,1-3.86.57,7.39,7.39,0,0,1-3.65-1.94,17.19,17.19,0,0,1-4.42-7.55,32.28,32.28,0,0,1,0-18.61,17.25,17.25,0,0,1,4.42-7.55,7.47,7.47,0,0,1,3.65-1.94,6.25,6.25,0,0,1,3.86.57,9.12,9.12,0,0,1,2.85,2.25,15.87,15.87,0,0,1,1.89,2.75,22.7,22.7,0,0,1,2,5.34c.23.8.32,1.58.47,2.28s.19,1.36.25,1.95c.09,1.18.14,2.09.13,2.71,0,.28,0,.52,0,.71A1.22,1.22,0,0,1,350.19,329.21Z" style="fill: rgb(38, 50, 56); transform-origin: 339.748px 329.205px;" id="elii4rmotegxc" class="animable"></path><path d="M339.72,331.37l-.71.05.09,1.28-1,.08-.09-1.29-2.36.17-.07-1,1.79-4,1.06-.07-1.65,3.81,1.18-.09-.08-1.14.95-.07.09,1.14.71,0Z" style="fill: rgb(38, 50, 56); transform-origin: 337.65px 329.685px;" id="eltv749e1s83" class="animable"></path><path d="M341.64,330.67l-.43.68.09,1.2-1,.07-.46-6.47,1-.07.27,3.66,1.29-2,1.16-.08-1.26,2.09,1.72,2.59-1.18.09Z" style="fill: rgb(38, 50, 56); transform-origin: 341.93px 329.35px;" id="elnfbbvvtgty" class="animable"></path><path d="M233.62,71.74c4.86-3.81,5.17-11.57,1.86-16.78s-9.32-8.15-15.34-9.5c-9.32-2.09-20-.58-26.74,6.18s-7.58,19.39-.19,25.44c-4.27.34-8.76.75-12.23,3.25s-5.26,7.85-2.53,11.14c3.1,3.75,9.06,2.35,13.61.61-3,1.89-3.46,6.46-1.5,9.41s5.69,4.34,9.23,4.29,6.94-1.3,10.19-2.72" style="fill: rgb(38, 50, 56); transform-origin: 207.395px 75.184px;" id="eluy6rryzzqh" class="animable"></path><path d="M218.74,73.19a26.53,26.53,0,0,1,5.88-5.71,9.11,9.11,0,0,1,7.83-1.26A3.78,3.78,0,0,1,235,68.86c.22,1.27-.94,2.73-2.19,2.42l-.31.18c-3.24,2-6.52,4-9.83,5.91a7.53,7.53,0,0,1-2.66,1.09,2.57,2.57,0,0,1-2.54-1C216.66,76.11,217.72,74.41,218.74,73.19Z" style="fill: #C5B6B4; transform-origin: 226.105px 72.1707px;" id="eli14tgber05j" class="animable"></path><path d="M211.88,81.57c11.3-9.94,25-14.47,39.92-12.26,8.4,1.24,11.58,3.56,17.34,6.18S279.82,82.25,282.57,88c3.27,6.77,5.74,14.16,5.33,21.67-.42,7.72-.85,15.48-2.68,23s-5.16,14.83-10.65,20.26l-19.9.16c-10.75-1.4-29.12,9.21-39.13,5.05s-16.5-22.8-17.85-34C195.88,109.15,200.58,91.51,211.88,81.57Z" style="fill: rgb(38, 50, 56); transform-origin: 242.629px 113.937px;" id="elcadv97mabab" class="animable"></path><path d="M249.07,187.39c1-6.81,2.17-15.35,2.17-15.32s16.06.87,23.75-18.63c3.83-9.7,7-26.29,9.13-39.95,1.93-12.29-5.76-30.74-20.91-33.3L256.6,78.3l-27.48,6a7.29,7.29,0,0,0-8,5.8l-15.66,91.47,12,27.6,29.62-11.48Z" style="fill: rgb(174, 116, 97); transform-origin: 244.936px 143.735px;" id="el78zwaa9iov" class="animable"></path><path d="M245.45,143.7a4.47,4.47,0,0,1,7.31-1.83,6,6,0,0,1,1.33,5.9h0a5.46,5.46,0,0,1-4.2,1.59,6.09,6.09,0,0,1-.73-.1,4.85,4.85,0,0,1-3-1.82A4.36,4.36,0,0,1,245.45,143.7Z" style="fill: rgb(111, 68, 57); transform-origin: 249.834px 145.009px;" id="elpzg7y2w6h9n" class="animable"></path><path d="M275.31,128.65a2.66,2.66,0,0,1-3.08,2.06,2.54,2.54,0,0,1-2.15-2.93,2.64,2.64,0,0,1,3.07-2.06A2.54,2.54,0,0,1,275.31,128.65Z" style="fill: rgb(38, 50, 56); transform-origin: 272.695px 128.214px;" id="eljfq9m658pzg" class="animable"></path><path d="M278.37,119.55c-.39.27-2-1.62-4.82-2.24s-5.15.33-5.38-.08c-.11-.18.35-.72,1.39-1.17a7.23,7.23,0,0,1,4.39-.35,7,7,0,0,1,3.75,2.2C278.41,118.76,278.57,119.43,278.37,119.55Z" style="fill: rgb(38, 50, 56); transform-origin: 273.302px 117.548px;" id="elgbvuds7549d" class="animable"></path><path d="M256.64,138.64c0-.17,1.82-.08,4.71.18.73.09,1.43.1,1.66-.36a3.74,3.74,0,0,0,0-2.22q-.43-2.81-.91-5.89c-1.2-8.37-1.91-15.19-1.58-15.24s1.6,6.71,2.81,15.08c.28,2.06.55,4,.8,5.9a4.23,4.23,0,0,1-.25,2.88,1.83,1.83,0,0,1-1.4.78,4.76,4.76,0,0,1-1.25-.1C258.37,139.17,256.61,138.8,256.64,138.64Z" style="fill: rgb(38, 50, 56); transform-origin: 260.457px 127.433px;" id="elms0ficlland" class="animable"></path><path d="M251.23,172.07a52.74,52.74,0,0,1-25.46-13.23s4.1,15.61,24.75,18.21Z" style="fill: rgb(111, 68, 57); transform-origin: 238.5px 167.945px;" id="ele0h1qup1oca" class="animable"></path><path d="M248,138.74c.46.08-.2,3.1,1.91,5.83s5.41,3.11,5.34,3.53c0,.2-.85.43-2.22.17a7.77,7.77,0,0,1-4.5-2.78,6.78,6.78,0,0,1-1.4-4.85C247.3,139.35,247.8,138.68,248,138.74Z" style="fill: rgb(38, 50, 56); transform-origin: 251.173px 143.561px;" id="elvr18u0reni" class="animable"></path><path d="M279,113.88c-.62.57-2.65-.36-5.19-.7s-4.76-.15-5.17-.89c-.18-.35.24-1,1.26-1.45a8.12,8.12,0,0,1,8.35,1.28C279.11,112.89,279.32,113.59,279,113.88Z" style="fill: rgb(38, 50, 56); transform-origin: 273.871px 112.138px;" id="elcdb5w0iptpg" class="animable"></path><path d="M243.66,122.51a2.66,2.66,0,0,0,2,3.1,2.54,2.54,0,0,0,3.12-1.86,2.66,2.66,0,0,0-2-3.1A2.54,2.54,0,0,0,243.66,122.51Z" style="fill: rgb(38, 50, 56); transform-origin: 246.22px 123.13px;" id="eluwq8e5d9opb" class="animable"></path><path d="M240.46,112.17c.26.4,2.51-.7,5.32-.18s4.61,2.3,5,2c.18-.12,0-.8-.82-1.61a7.21,7.21,0,0,0-3.91-2,7,7,0,0,0-4.31.57C240.74,111.42,240.33,112,240.46,112.17Z" style="fill: rgb(38, 50, 56); transform-origin: 245.64px 112.143px;" id="el7mhl689dxzq" class="animable"></path><path d="M243.64,103.43c.44.74,2.73.47,5.34.92s4.74,1.31,5.37.74c.28-.29.05-1-.8-1.77a8.65,8.65,0,0,0-8.63-1.34C243.88,102.47,243.46,103.07,243.64,103.43Z" style="fill: rgb(38, 50, 56); transform-origin: 249.031px 103.329px;" id="elpdmqy9cne4s" class="animable"></path><path d="M219,124.94c.33-1.51-.63-5.44-2.06-6-3.83-1.5-11.06-2.78-13.36,7.29-3.15,13.76,11.31,14.09,11.42,13.7S217.85,130.14,219,124.94Z" style="fill: rgb(174, 116, 97); transform-origin: 211.098px 128.97px;" id="elevh53rpe75n" class="animable"></path><path d="M212.36,134c-.05-.06-.28.11-.73.21a2.44,2.44,0,0,1-1.8-.38c-1.33-.86-2-3.45-1.52-6a8.13,8.13,0,0,1,1.46-3.28,2.82,2.82,0,0,1,2.22-1.42,1.24,1.24,0,0,1,1.26,1c.1.43-.05.68,0,.72s.35-.16.37-.76a1.63,1.63,0,0,0-.35-1,1.87,1.87,0,0,0-1.24-.66,3.5,3.5,0,0,0-3,1.56,8.52,8.52,0,0,0-1.71,3.65c-.54,2.79.28,5.71,2.14,6.74a2.62,2.62,0,0,0,2.28.14C212.26,134.36,212.4,134.07,212.36,134Z" style="fill: rgb(111, 68, 57); transform-origin: 210.388px 128.573px;" id="el3f1gemm6czq" class="animable"></path><path d="M216.37,118.88l2.92,4.25c17.67-12.08,53.51-43.71,51.49-41.8,0,0-9.74-6-21.4-6s-34.11,2.18-36,15.61S216.37,118.88,216.37,118.88Z" style="fill: rgb(38, 50, 56); transform-origin: 241.903px 99.23px;" id="el4r0785h67g5" class="animable"></path><path d="M196.67,112.48a3.6,3.6,0,0,1,.35-.77,13.77,13.77,0,0,1,1.31-2,20.61,20.61,0,0,1,6.89-5.58,38.68,38.68,0,0,1,12.63-3.69c4.9-.75,10.33-1.06,15.84-2.41a69.34,69.34,0,0,0,15-5.43,72.37,72.37,0,0,0,11.09-6.87,76.28,76.28,0,0,0,6.7-5.73l1.71-1.68a3.33,3.33,0,0,1,.63-.56,4,4,0,0,1-.52.66c-.37.41-.89,1-1.62,1.78a62.93,62.93,0,0,1-6.59,5.93,67.81,67.81,0,0,1-26.24,12.6c-5.59,1.37-11.06,1.66-15.92,2.37a39.17,39.17,0,0,0-12.49,3.49,21.11,21.11,0,0,0-6.9,5.3C197.24,111.45,196.74,112.51,196.67,112.48Z" style="fill: rgb(69, 90, 100); transform-origin: 232.745px 95.1203px;" id="el9ajap3tm4b9" class="animable"></path><path d="M200.36,115.33a7.48,7.48,0,0,1,1-3,14.49,14.49,0,0,1,6.3-5.68c3.27-1.69,7.63-2.34,12.36-2.63a69.24,69.24,0,0,0,15.17-2.19,61.87,61.87,0,0,0,14.16-5.81,63.44,63.44,0,0,0,10.24-7.21,65.52,65.52,0,0,0,6-5.94l1.5-1.75a3.8,3.8,0,0,1,.57-.58,3.3,3.3,0,0,1-.45.67l-1.4,1.85A57.65,57.65,0,0,1,260,89.25a60.51,60.51,0,0,1-24.55,13.33,67.82,67.82,0,0,1-15.31,2.15c-4.71.26-9,.85-12.17,2.43a14.52,14.52,0,0,0-6.29,5.37A16.43,16.43,0,0,0,200.36,115.33Z" style="fill: rgb(69, 90, 100); transform-origin: 234.01px 97.935px;" id="elfy5gguy0jaa" class="animable"></path><path d="M161.93,241.93c.56,1.08.56,14.4,3.08,29.35s15.34,45.45,15.34,45.45l-2.65,20.71,111.36,12.72-13.4-35.85,1.47-33.77s8.52-9.44,4.92-34.65S273.24,199,273.24,199l-9-3.82L252.84,191l-42.73-13.38-23.39-2.77L164.29,221Z" style="fill: rgb(174, 116, 97); transform-origin: 225.495px 262.505px;" id="elked8ru6sy8q" class="animable"></path><path d="M169,287.33s8.2-5.8,27.9-6.23,77.74,9.34,77.74,9.34l2.08-7.64s14.05-21.39,3.81-46.07c-10.91-26.31-7.18-38.29-7.18-38.29l-9.1-3.23s-9.11,18-16.89,22.32c-8.76,4.91-24.89,4.68-39.11-13.95a51.57,51.57,0,0,1-10.17-27.83l-10.69-.93s-2.48,27.69-7.83,40.54-18.89,39.72-18.89,39.72S166.4,283.71,169,287.33Z" style="fill: rgb(38, 50, 56); transform-origin: 222.469px 232.63px;" id="el9385ubhyi1" class="animable"></path><path d="M176.53,337.49c-.72,1.8-12.24,32.77-13.68,58s-1.8,56.72,3.6,77.33h63.74s5.31-45.57,7.11-47.73,3.6-2.84,4.32,5.43-1.35,42.3-1.35,42.3h62s1.79-56.66.35-70.6c-.92-8.83-3.85-23.34-5.88-32.79a112.12,112.12,0,0,0-5.21-17.32l-7.23-18.44Z" style="fill: rgb(38, 50, 56); transform-origin: 232.556px 403.245px;" id="elfj2nd35knv4" class="animable"></path><path d="M289.06,345.89a1.16,1.16,0,0,1-.3,0l-.89,0-3.4.07c-3,0-7.24.16-12.53.35-10.57.36-25.15,1.25-41.26,2.38s-30.71,2-41.29,2.23c-5.29.14-9.57.2-12.53.18l-3.41,0-.88,0-.3,0a1.16,1.16,0,0,1,.3,0l.88,0,3.41-.07c3,0,7.24-.16,12.52-.35,10.57-.36,25.16-1.25,41.27-2.38s30.7-2,41.28-2.23c5.29-.14,9.58-.2,12.53-.18l3.41,0,.89,0Z" style="fill: rgb(69, 90, 100); transform-origin: 230.665px 348.495px;" id="elxl7k347huhd" class="animable"></path><path d="M183.22,351.11s0,.1-.05.31-.1.54-.18.91l-.75,3.5c-.33,1.51-.74,3.37-1.14,5.54s-.93,4.62-1.37,7.36c-.24,1.36-.48,2.8-.73,4.29s-.46,3.05-.7,4.66c-.51,3.23-.89,6.69-1.33,10.33-.77,7.29-1.4,15.33-1.66,23.79s-.05,16.53.33,23.85c.24,3.66.44,7.14.78,10.39.17,1.62.28,3.19.46,4.69s.36,2.95.53,4.32c.3,2.76.72,5.24,1,7.42s.63,4,.91,5.58.46,2.68.6,3.52c.06.38.11.68.15.92a1.22,1.22,0,0,1,0,.31,1.11,1.11,0,0,1-.09-.3l-.19-.91c-.17-.84-.4-2-.7-3.51s-.67-3.39-1-5.57-.79-4.65-1.11-7.41c-.18-1.38-.37-2.82-.56-4.32s-.32-3.08-.5-4.7c-.36-3.25-.57-6.73-.83-10.4-.41-7.33-.59-15.41-.37-23.89s.9-16.53,1.7-23.83c.46-3.65.86-7.11,1.38-10.34.26-1.61.47-3.17.73-4.67s.52-2.92.77-4.29c.46-2.74,1-5.19,1.45-7.35s.86-4,1.23-5.53l.84-3.47c.09-.37.17-.67.23-.9A.88.88,0,0,1,183.22,351.11Z" style="fill: rgb(255, 255, 255); transform-origin: 178.923px 411.955px;" id="elxi8pvv57rws" class="animable"></path><path d="M177.7,351.74a1.88,1.88,0,0,1,0,.31c0,.23-.11.53-.18.91-.18.83-.43,2-.74,3.48s-.74,3.35-1.13,5.51-.92,4.59-1.34,7.32c-.23,1.36-.47,2.79-.71,4.27s-.44,3-.67,4.65c-.49,3.21-.85,6.65-1.26,10.28-.72,7.26-1.27,15.26-1.45,23.68s.11,16.44.55,23.72c.27,3.64.5,7.1.87,10.32.17,1.61.3,3.17.49,4.67s.37,2.93.55,4.29c.31,2.75.74,5.21,1.06,7.37s.64,4,.92,5.55.46,2.67.61,3.51l.14.91a1.22,1.22,0,0,1,0,.31,1.53,1.53,0,0,1-.08-.3c0-.23-.12-.53-.2-.9-.16-.84-.4-2-.7-3.49s-.67-3.37-1-5.54-.8-4.62-1.14-7.37c-.18-1.37-.38-2.8-.58-4.29s-.34-3.06-.52-4.68c-.39-3.22-.63-6.69-.92-10.33-.47-7.29-.73-15.33-.59-23.76s.75-16.45,1.49-23.72c.43-3.63.8-7.08,1.31-10.29.24-1.61.44-3.17.7-4.65s.51-2.91.74-4.27c.45-2.73,1-5.17,1.42-7.32s.85-4,1.22-5.5l.83-3.46c.1-.37.17-.66.23-.89A1.31,1.31,0,0,1,177.7,351.74Z" style="fill: rgb(255, 255, 255); transform-origin: 173.674px 412.27px;" id="elton8fn7xh8h" class="animable"></path><path d="M284.3,334.94a10.33,10.33,0,0,1-.77-1.57c-.49-1.11-1.13-2.59-1.92-4.38-1.6-3.7-3.79-8.85-6.19-14.58l0,0v-.05c0-.24,0-.5,0-.76-.27-6.39-.48-12.16-.6-16.35,0-2-.09-3.7-.12-4.95,0-.54,0-1,0-1.35a1.9,1.9,0,0,1,0-.47,1.28,1.28,0,0,1,.08.46c0,.37.06.81.1,1.35.07,1.25.17,2.92.29,4.95.22,4.18.48,9.95.75,16.34,0,.26,0,.52,0,.76l0-.09c2.4,5.73,4.53,10.9,6,14.64.73,1.82,1.32,3.32,1.77,4.44A12.26,12.26,0,0,1,284.3,334.94Z" style="fill: rgb(111, 68, 57); transform-origin: 279.493px 312.71px;" id="el7i7zeasomh4" class="animable"></path><path d="M272.78,242.56a88.6,88.6,0,0,1-9.4-1.58,87.7,87.7,0,0,1-9.29-2.1,87.32,87.32,0,0,1,9.39,1.59A87.65,87.65,0,0,1,272.78,242.56Z" style="fill: rgb(255, 255, 255); transform-origin: 263.435px 240.72px;" id="elvzl3wrwi2ls" class="animable"></path><g id="elth2hlmkljwq"><circle cx="112.72" cy="421.54" r="18.98" style="fill: #C5B6B4; transform-origin: 112.72px 421.54px; transform: rotate(-22.23deg);" class="animable" id="elo4zwsf4iy"></circle></g><g id="elv54iyv70shk"><g style="opacity: 0.3; transform-origin: 112.72px 421.54px;" class="animable" id="el0nsxqe3oelam"><g id="elnkm1dh4ylhl"><circle cx="112.72" cy="421.54" r="18.98" class="animable" style="transform-origin: 112.72px 421.54px; transform: rotate(-22.23deg);" id="elryb5mu844df"></circle></g></g></g><g id="eleul58inu6fb"><circle cx="118.76" cy="421.54" r="18.98" style="fill: #C5B6B4; transform-origin: 118.76px 421.54px; transform: rotate(-23.46deg);" class="animable" id="el871ensjwn9p"></circle></g><path d="M108.13,386.26c0,.71,0,13.11-2.16,20.06s-3.2,14.07-2.31,16.75,10.87,12.47,13.19,13.36,22.63-.89,22.63-.89l7-23.7s-8-11.41-11.41-17.46S128.57,381.26,129,377,108.13,386.26,108.13,386.26Z" style="fill: rgb(174, 116, 97); transform-origin: 124.911px 406.424px;" id="elt7ct74joy8j" class="animable"></path><circle cx="135.32" cy="423.36" r="18.98" style="fill: #C5B6B4; transform-origin: 135.32px 423.36px;" id="elmib4986elm" class="animable"></circle><path d="M176.89,175.05a37.65,37.65,0,0,0-15.79,5.68c-7.74,5-17.08,14.69-20.42,32.79-6.08,32.9-9.3,61.87-12.88,69.38s-11.09,21.81-11.8,36.84-7.87,66.52-7.87,66.52h18.6S143.9,333,150.33,315.8s4.77-17.59,9.06-33.68,13.22-47.05,13.22-47.05l10.72-32.68,3.39-27.57Z" style="fill: rgb(174, 116, 97); transform-origin: 147.425px 280.54px;" id="el2ktfrtfsx4a" class="animable"></path><path d="M173.59,203.13a11.79,11.79,0,0,1,1.06,2.44,45.22,45.22,0,0,1,1.76,6.19,43.81,43.81,0,0,1,.82,6.38,12.73,12.73,0,0,1,0,2.66,15,15,0,0,1-.36-2.63c-.18-1.63-.46-3.87-1-6.31s-1.13-4.61-1.6-6.17A14.76,14.76,0,0,1,173.59,203.13Z" style="fill: rgb(111, 68, 57); transform-origin: 175.445px 211.965px;" id="el2b3ossqdcn" class="animable"></path><g id="el07p4usttdju"><g style="opacity: 0.3; transform-origin: 135.32px 423.36px;" class="animable" id="ell4nkr5jf66k"><circle cx="135.32" cy="423.36" r="18.98" id="els8ro7jboovs" class="animable" style="transform-origin: 135.32px 423.36px;"></circle></g></g><circle cx="141.99" cy="423.36" r="18.98" style="fill: #C5B6B4; transform-origin: 141.99px 423.36px;" id="elhtwetsa1vfs" class="animable"></circle><path d="M142.64,425.32l-.88.06.1,1.41-1.21.09-.11-1.41-2.9.21-.07-1.05,2.23-4.45,1.31-.09L139,424.3l1.45-.1-.09-1.26,1.18-.08.09,1.25.88-.06Z" style="fill: rgb(38, 50, 56); transform-origin: 140.105px 423.485px;" id="el8d9tw1hbqa5" class="animable"></path><path d="M145,424.53l-.53.76.09,1.31-1.2.09-.51-7.13,1.2-.09.29,4,1.61-2.2,1.43-.1-1.57,2.31,2.1,2.84-1.46.11Z" style="fill: rgb(38, 50, 56); transform-origin: 145.38px 423.08px;" id="eld066rcqabn" class="animable"></path><path d="M157.89,423.36a26.59,26.59,0,0,0-.6-3.86,14.81,14.81,0,0,0-1.77-4.18,15.74,15.74,0,0,0-4-4.45,15.66,15.66,0,0,0-14.84-2.21,14.63,14.63,0,0,0-4,2.13,14.45,14.45,0,0,0-3.3,3.32,15.58,15.58,0,0,0,0,18.49,17.75,17.75,0,0,0,1.53,1.82,19.35,19.35,0,0,0,1.77,1.51,14.63,14.63,0,0,0,4,2.13,15.75,15.75,0,0,0,8.23.7,15.55,15.55,0,0,0,6.61-2.91,15.87,15.87,0,0,0,4-4.45,14.81,14.81,0,0,0,1.77-4.18,26.59,26.59,0,0,0,.6-3.86,1,1,0,0,1,0,.26c0,.2,0,.45,0,.76a7.54,7.54,0,0,1-.1,1.23,11,11,0,0,1-.3,1.65,15,15,0,0,1-1.72,4.29,16,16,0,0,1-10.8,7.63,16.12,16.12,0,0,1-8.47-.67,15.1,15.1,0,0,1-4.09-2.18,16.88,16.88,0,0,1-1.84-1.56A17.93,17.93,0,0,1,129,432.9a16,16,0,0,1,0-19.09,14.36,14.36,0,0,1,3.42-3.42,15.13,15.13,0,0,1,4.09-2.19,16.22,16.22,0,0,1,8.47-.67,16.1,16.1,0,0,1,10.8,7.64,15,15,0,0,1,1.72,4.28,11.34,11.34,0,0,1,.3,1.66,7.54,7.54,0,0,1,.1,1.23c0,.31,0,.56,0,.76A1,1,0,0,1,157.89,423.36Z" style="fill: rgb(38, 50, 56); transform-origin: 141.873px 423.357px;" id="elvh03hi0902" class="animable"></path></g><defs>     <filter id="active" height="200%">         <feMorphology in="SourceAlpha" result="DILATED" operator="dilate" radius="2"></feMorphology>                <feFlood flood-color="#32DFEC" flood-opacity="1" result="PINK"></feFlood>        <feComposite in="PINK" in2="DILATED" operator="in" result="OUTLINE"></feComposite>        <feMerge>            <feMergeNode in="OUTLINE"></feMergeNode>            <feMergeNode in="SourceGraphic"></feMergeNode>        </feMerge>    </filter>    <filter id="hover" height="200%">        <feMorphology in="SourceAlpha" result="DILATED" operator="dilate" radius="2"></feMorphology>                <feFlood flood-color="#ff0000" flood-opacity="0.5" result="PINK"></feFlood>        <feComposite in="PINK" in2="DILATED" operator="in" result="OUTLINE"></feComposite>        <feMerge>            <feMergeNode in="OUTLINE"></feMergeNode>            <feMergeNode in="SourceGraphic"></feMergeNode>        </feMerge>            <feColorMatrix type="matrix" values="0   0   0   0   0                0   1   0   0   0                0   0   0   0   0                0   0   0   1   0 "></feColorMatrix>    </filter></defs></svg>